<svg xmlns="http://www.w3.org/2000/svg" width="2070" height="685"><g transform="translate(791.875,30)"><path class="link" d="M0,0C0,40 -521.875,40 -521.875,80" style="opacity: 1; fill: none; stroke: rgb(204, 204, 204);"/><path class="link" d="M0,0C0,40 0,40 0,80" style="opacity: 1; fill: none; stroke: rgb(204, 204, 204);"/><path class="link" d="M0,0C0,40 521.875,40 521.875,80" style="opacity: 1; fill: none; stroke: rgb(204, 204, 204);"/><path class="link" d="M-521.875,80C-521.875,120 -671.875,120 -671.875,160" style="opacity: 1; fill: none; stroke: rgb(204, 204, 204);"/><path class="link" d="M-521.875,80C-521.875,120 -621.875,120 -621.875,160" style="opacity: 1; fill: none; stroke: rgb(204, 204, 204);"/><path class="link" d="M-521.875,80C-521.875,120 -571.875,120 -571.875,160" style="opacity: 1; fill: none; stroke: rgb(204, 204, 204);"/><path class="link" d="M-521.875,80C-521.875,120 -521.875,120 -521.875,160" style="opacity: 1; fill: none; stroke: rgb(204, 204, 204);"/><path class="link" d="M-521.875,80C-521.875,120 -371.875,120 -371.875,160" style="opacity: 1; fill: none; stroke: rgb(204, 204, 204);"/><path class="link" d="M-521.875,160C-521.875,200 -521.875,200 -521.875,240" style="opacity: 1; fill: none; stroke: rgb(204, 204, 204);"/><path class="link" d="M521.875,80C521.875,120 -171.875,120 -171.875,160" style="opacity: 1; fill: none; stroke: rgb(204, 204, 204);"/><path class="link" d="M521.875,80C521.875,120 -121.875,120 -121.875,160" style="opacity: 1; fill: none; stroke: rgb(204, 204, 204);"/><path class="link" d="M521.875,80C521.875,120 1065.625,120 1065.625,160" style="opacity: 1; fill: none; stroke: rgb(204, 204, 204);"/><path class="link" d="M-121.875,160C-121.875,200 -171.875,200 -171.875,240" style="opacity: 1; fill: none; stroke: rgb(204, 204, 204);"/><path class="link" d="M-521.875,80C-521.875,120 -771.875,120 -771.875,160" style="opacity: 1; fill: none; stroke: rgb(204, 204, 204);"/><path class="link" d="M-521.875,80C-521.875,120 -721.875,120 -721.875,160" style="opacity: 1; fill: none; stroke: rgb(204, 204, 204);"/><path class="link" d="M-521.875,80C-521.875,120 -271.875,120 -271.875,160" style="opacity: 1; fill: none; stroke: rgb(204, 204, 204);"/><path class="link" d="M521.875,80C521.875,120 1115.625,120 1115.625,160" style="opacity: 1; fill: none; stroke: rgb(204, 204, 204);"/><path class="link" d="M521.875,80C521.875,120 1165.625,120 1165.625,160" style="opacity: 1; fill: none; stroke: rgb(204, 204, 204);"/><path class="link" d="M521.875,80C521.875,120 1215.625,120 1215.625,160" style="opacity: 1; fill: none; stroke: rgb(204, 204, 204);"/><path class="link" d="M-121.875,160C-121.875,200 -121.875,200 -121.875,240" style="opacity: 1; fill: none; stroke: rgb(204, 204, 204);"/><path class="link" d="M-121.875,160C-121.875,200 -71.875,200 -71.875,240" style="opacity: 1; fill: none; stroke: rgb(204, 204, 204);"/><path class="link" d="M-121.875,240C-121.875,280 -346.875,280 -346.875,320" style="opacity: 1; fill: none; stroke: rgb(204, 204, 204);"/><path class="link" d="M-121.875,240C-121.875,280 -296.875,280 -296.875,320" style="opacity: 1; fill: none; stroke: rgb(204, 204, 204);"/><path class="link" d="M-121.875,240C-121.875,280 -146.875,280 -146.875,320" style="opacity: 1; fill: none; stroke: rgb(204, 204, 204);"/><path class="link" d="M-121.875,240C-121.875,280 -46.875,280 -46.875,320" style="opacity: 1; fill: none; stroke: rgb(204, 204, 204);"/><path class="link" d="M-121.875,240C-121.875,280 53.125,280 53.125,320" style="opacity: 1; fill: none; stroke: rgb(204, 204, 204);"/><path class="link" d="M-121.875,240C-121.875,280 103.125,280 103.125,320" style="opacity: 1; fill: none; stroke: rgb(204, 204, 204);"/><path class="link" d="M-296.875,320C-296.875,360 -296.875,360 -296.875,400" style="opacity: 1; fill: none; stroke: rgb(204, 204, 204);"/><path class="link" d="M-146.875,320C-146.875,360 -196.875,360 -196.875,400" style="opacity: 1; fill: none; stroke: rgb(204, 204, 204);"/><path class="link" d="M-146.875,320C-146.875,360 -146.875,360 -146.875,400" style="opacity: 1; fill: none; stroke: rgb(204, 204, 204);"/><path class="link" d="M-146.875,320C-146.875,360 -96.875,360 -96.875,400" style="opacity: 1; fill: none; stroke: rgb(204, 204, 204);"/><path class="link" d="M53.125,320C53.125,360 3.125,360 3.125,400" style="opacity: 1; fill: none; stroke: rgb(204, 204, 204);"/><path class="link" d="M53.125,320C53.125,360 53.125,360 53.125,400" style="opacity: 1; fill: none; stroke: rgb(204, 204, 204);"/><path class="link" d="M53.125,320C53.125,360 103.125,360 103.125,400" style="opacity: 1; fill: none; stroke: rgb(204, 204, 204);"/><path class="link" d="M53.125,400C53.125,440 -446.875,440 -446.875,480" style="opacity: 1; fill: none; stroke: rgb(204, 204, 204);"/><path class="link" d="M53.125,400C53.125,440 -346.875,440 -346.875,480" style="opacity: 1; fill: none; stroke: rgb(204, 204, 204);"/><path class="link" d="M53.125,400C53.125,440 -246.875,440 -246.875,480" style="opacity: 1; fill: none; stroke: rgb(204, 204, 204);"/><path class="link" d="M53.125,400C53.125,440 -146.875,440 -146.875,480" style="opacity: 1; fill: none; stroke: rgb(204, 204, 204);"/><path class="link" d="M53.125,400C53.125,440 -46.875,440 -46.875,480" style="opacity: 1; fill: none; stroke: rgb(204, 204, 204);"/><path class="link" d="M53.125,400C53.125,440 53.125,440 53.125,480" style="opacity: 1; fill: none; stroke: rgb(204, 204, 204);"/><path class="link" d="M53.125,400C53.125,440 153.125,440 153.125,480" style="opacity: 1; fill: none; stroke: rgb(204, 204, 204);"/><path class="link" d="M53.125,400C53.125,440 253.125,440 253.125,480" style="opacity: 1; fill: none; stroke: rgb(204, 204, 204);"/><path class="link" d="M53.125,400C53.125,440 353.125,440 353.125,480" style="opacity: 1; fill: none; stroke: rgb(204, 204, 204);"/><path class="link" d="M53.125,400C53.125,440 453.125,440 453.125,480" style="opacity: 1; fill: none; stroke: rgb(204, 204, 204);"/><path class="link" d="M53.125,400C53.125,440 553.125,440 553.125,480" style="opacity: 1; fill: none; stroke: rgb(204, 204, 204);"/><path class="link" d="M53.125,400C53.125,440 653.125,440 653.125,480" style="opacity: 1; fill: none; stroke: rgb(204, 204, 204);"/><path class="link" d="M53.125,400C53.125,440 703.125,440 703.125,480" style="opacity: 1; fill: none; stroke: rgb(204, 204, 204);"/><path class="link" d="M-346.875,480C-346.875,520 -396.875,520 -396.875,560" style="opacity: 1; fill: none; stroke: rgb(204, 204, 204);"/><path class="link" d="M-346.875,480C-346.875,520 -346.875,520 -346.875,560" style="opacity: 1; fill: none; stroke: rgb(204, 204, 204);"/><path class="link" d="M-346.875,480C-346.875,520 -296.875,520 -296.875,560" style="opacity: 1; fill: none; stroke: rgb(204, 204, 204);"/><path class="link" d="M-346.875,560C-346.875,600 -346.875,600 -346.875,640" style="opacity: 1; fill: none; stroke: rgb(204, 204, 204);"/><path class="link" d="M-146.875,480C-146.875,520 -196.875,520 -196.875,560" style="opacity: 1; fill: none; stroke: rgb(204, 204, 204);"/><path class="link" d="M-146.875,480C-146.875,520 -146.875,520 -146.875,560" style="opacity: 1; fill: none; stroke: rgb(204, 204, 204);"/><path class="link" d="M-146.875,480C-146.875,520 -96.875,520 -96.875,560" style="opacity: 1; fill: none; stroke: rgb(204, 204, 204);"/><path class="link" d="M-146.875,560C-146.875,600 -146.875,600 -146.875,640" style="opacity: 1; fill: none; stroke: rgb(204, 204, 204);"/><path class="link" d="M53.125,480C53.125,520 3.125,520 3.125,560" style="opacity: 1; fill: none; stroke: rgb(204, 204, 204);"/><path class="link" d="M53.125,480C53.125,520 53.125,520 53.125,560" style="opacity: 1; fill: none; stroke: rgb(204, 204, 204);"/><path class="link" d="M53.125,480C53.125,520 103.125,520 103.125,560" style="opacity: 1; fill: none; stroke: rgb(204, 204, 204);"/><path class="link" d="M53.125,560C53.125,600 53.125,600 53.125,640" style="opacity: 1; fill: none; stroke: rgb(204, 204, 204);"/><path class="link" d="M253.125,480C253.125,520 203.125,520 203.125,560" style="opacity: 1; fill: none; stroke: rgb(204, 204, 204);"/><path class="link" d="M253.125,480C253.125,520 253.125,520 253.125,560" style="opacity: 1; fill: none; stroke: rgb(204, 204, 204);"/><path class="link" d="M253.125,480C253.125,520 303.125,520 303.125,560" style="opacity: 1; fill: none; stroke: rgb(204, 204, 204);"/><path class="link" d="M253.125,560C253.125,600 253.125,600 253.125,640" style="opacity: 1; fill: none; stroke: rgb(204, 204, 204);"/><path class="link" d="M453.125,480C453.125,520 403.125,520 403.125,560" style="opacity: 1; fill: none; stroke: rgb(204, 204, 204);"/><path class="link" d="M453.125,480C453.125,520 453.125,520 453.125,560" style="opacity: 1; fill: none; stroke: rgb(204, 204, 204);"/><path class="link" d="M453.125,480C453.125,520 503.125,520 503.125,560" style="opacity: 1; fill: none; stroke: rgb(204, 204, 204);"/><path class="link" d="M453.125,560C453.125,600 453.125,600 453.125,640" style="opacity: 1; fill: none; stroke: rgb(204, 204, 204);"/><path class="link" d="M653.125,480C653.125,520 603.125,520 603.125,560" style="opacity: 1; fill: none; stroke: rgb(204, 204, 204);"/><path class="link" d="M653.125,480C653.125,520 653.125,520 653.125,560" style="opacity: 1; fill: none; stroke: rgb(204, 204, 204);"/><path class="link" d="M653.125,480C653.125,520 703.125,520 703.125,560" style="opacity: 1; fill: none; stroke: rgb(204, 204, 204);"/><path class="link" d="M653.125,560C653.125,600 653.125,600 653.125,640" style="opacity: 1; fill: none; stroke: rgb(204, 204, 204);"/><path class="link" d="M1065.625,160C1065.625,200 1065.625,200 1065.625,240" style="opacity: 1; fill: none; stroke: rgb(204, 204, 204);"/><path class="link" d="M1065.625,240C1065.625,280 1015.625,280 1015.625,320" style="opacity: 1; fill: none; stroke: rgb(204, 204, 204);"/><path class="link" d="M1065.625,240C1065.625,280 1065.625,280 1065.625,320" style="opacity: 1; fill: none; stroke: rgb(204, 204, 204);"/><path class="link" d="M1065.625,240C1065.625,280 1115.625,280 1115.625,320" style="opacity: 1; fill: none; stroke: rgb(204, 204, 204);"/><path class="link" d="M1065.625,320C1065.625,360 878.125,360 878.125,400" style="opacity: 1; fill: none; stroke: rgb(204, 204, 204);"/><path class="link" d="M1065.625,320C1065.625,360 928.125,360 928.125,400" style="opacity: 1; fill: none; stroke: rgb(204, 204, 204);"/><path class="link" d="M1065.625,320C1065.625,360 1253.125,360 1253.125,400" style="opacity: 1; fill: none; stroke: rgb(204, 204, 204);"/><path class="link" d="M928.125,400C928.125,440 803.125,440 803.125,480" style="opacity: 1; fill: none; stroke: rgb(204, 204, 204);"/><path class="link" d="M928.125,400C928.125,440 1003.125,440 1003.125,480" style="opacity: 1; fill: none; stroke: rgb(204, 204, 204);"/><path class="link" d="M521.875,80C521.875,120 471.875,120 471.875,160" style="opacity: 1; fill: none; stroke: rgb(204, 204, 204);"/><path class="link" d="M928.125,400C928.125,440 1053.125,440 1053.125,480" style="opacity: 1; fill: none; stroke: rgb(204, 204, 204);"/><path class="link" d="M1003.125,480C1003.125,520 1003.125,520 1003.125,560" style="opacity: 1; fill: none; stroke: rgb(204, 204, 204);"/><path class="link" d="M-521.875,80C-521.875,120 -471.875,120 -471.875,160" style="opacity: 1; fill: none; stroke: rgb(204, 204, 204);"/><path class="link" d="M-521.875,80C-521.875,120 -421.875,120 -421.875,160" style="opacity: 1; fill: none; stroke: rgb(204, 204, 204);"/><path class="link" d="M53.125,400C53.125,440 -596.875,440 -596.875,480" style="opacity: 1; fill: none; stroke: rgb(204, 204, 204);"/><path class="link" d="M53.125,400C53.125,440 -546.875,440 -546.875,480" style="opacity: 1; fill: none; stroke: rgb(204, 204, 204);"/><path class="link" d="M-546.875,480C-546.875,520 -596.875,520 -596.875,560" style="opacity: 1; fill: none; stroke: rgb(204, 204, 204);"/><path class="link" d="M-546.875,480C-546.875,520 -546.875,520 -546.875,560" style="opacity: 1; fill: none; stroke: rgb(204, 204, 204);"/><path class="link" d="M-546.875,480C-546.875,520 -496.875,520 -496.875,560" style="opacity: 1; fill: none; stroke: rgb(204, 204, 204);"/><path class="link" d="M-546.875,560C-546.875,600 -546.875,600 -546.875,640" style="opacity: 1; fill: none; stroke: rgb(204, 204, 204);"/><path class="link" d="M1065.625,160C1065.625,200 1015.625,200 1015.625,240" style="opacity: 1; fill: none; stroke: rgb(204, 204, 204);"/><path class="link" d="M1003.125,560C1003.125,600 953.125,600 953.125,640" style="opacity: 1; fill: none; stroke: rgb(204, 204, 204);"/><path class="link" d="M1003.125,560C1003.125,600 1053.125,600 1053.125,640" style="opacity: 1; fill: none; stroke: rgb(204, 204, 204);"/><path class="link" d="M1065.625,160C1065.625,200 1115.625,200 1115.625,240" style="opacity: 1; fill: none; stroke: rgb(204, 204, 204);"/><path class="link" d="M1065.625,320C1065.625,360 1065.625,360 1065.625,400" style="opacity: 1; fill: none; stroke: rgb(204, 204, 204);"/><path class="link" d="M1065.625,320C1065.625,360 1203.125,360 1203.125,400" style="opacity: 1; fill: none; stroke: rgb(204, 204, 204);"/><path class="link" d="M1203.125,400C1203.125,440 1153.125,440 1153.125,480" style="opacity: 1; fill: none; stroke: rgb(204, 204, 204);"/><path class="link" d="M928.125,400C928.125,440 853.125,440 853.125,480" style="opacity: 1; fill: none; stroke: rgb(204, 204, 204);"/><path class="link" d="M928.125,400C928.125,440 928.125,440 928.125,480" style="opacity: 1; fill: none; stroke: rgb(204, 204, 204);"/><path class="link" d="M853.125,480C853.125,520 853.125,520 853.125,560" style="opacity: 1; fill: none; stroke: rgb(204, 204, 204);"/><path class="link" d="M1003.125,480C1003.125,520 953.125,520 953.125,560" style="opacity: 1; fill: none; stroke: rgb(204, 204, 204);"/><path class="link" d="M1003.125,480C1003.125,520 1053.125,520 1053.125,560" style="opacity: 1; fill: none; stroke: rgb(204, 204, 204);"/><path class="link" d="M1003.125,560C1003.125,600 1003.125,600 1003.125,640" style="opacity: 1; fill: none; stroke: rgb(204, 204, 204);"/><path class="link" d="M1203.125,400C1203.125,440 1203.125,440 1203.125,480" style="opacity: 1; fill: none; stroke: rgb(204, 204, 204);"/><path class="link" d="M1203.125,400C1203.125,440 1253.125,440 1253.125,480" style="opacity: 1; fill: none; stroke: rgb(204, 204, 204);"/><path class="link" d="M-521.875,80C-521.875,120 -321.875,120 -321.875,160" style="opacity: 1; fill: none; stroke: rgb(204, 204, 204);"/><g class="node element" transform="translate(0,0)" style="opacity: 1; font-size: 11px; font-weight: bold;"><circle r="10" style="stroke-width: 1.5px; fill: steelblue; stroke: rgb(53, 94, 149);"/><text text-anchor="middle" dy="-15">html</text></g><g class="node element" transform="translate(-521.875,80)" style="opacity: 1; font-size: 11px; font-weight: bold;"><circle r="10" style="stroke-width: 1.5px; fill: steelblue; stroke: rgb(53, 94, 149);"/><text text-anchor="middle" dy="-15">head</text></g><g class="node text indent" transform="translate(-671.875,160)" style="opacity: 1; font-size: 11px; font-weight: bold;"><circle r="10" style="stroke-width: 1.5px; fill: rgb(255, 204, 0); stroke: orange;"/><text text-anchor="middle" dy="-15">#text</text></g><g class="node element" transform="translate(-621.875,160)" style="opacity: 1; font-size: 11px; font-weight: bold;"><circle r="10" style="stroke-width: 1.5px; fill: steelblue; stroke: rgb(53, 94, 149);"/><text text-anchor="middle" dy="-15">meta</text></g><g class="node text indent" transform="translate(-571.875,160)" style="opacity: 1; font-size: 11px; font-weight: bold;"><circle r="10" style="stroke-width: 1.5px; fill: rgb(255, 204, 0); stroke: orange;"/><text text-anchor="middle" dy="-15">#text</text></g><g class="node element" transform="translate(-521.875,160)" style="opacity: 1; font-size: 11px; font-weight: bold;"><circle r="10" style="stroke-width: 1.5px; fill: steelblue; stroke: rgb(53, 94, 149);"/><text text-anchor="middle" dy="-15">title</text></g><g class="node text" transform="translate(-521.875,240)" style="opacity: 1; font-size: 11px; font-weight: bold;"><circle r="10" style="stroke-width: 1.5px; fill: rgb(80, 180, 86); stroke: rgb(13, 149, 44);"/><text text-anchor="middle" dy="-15">#text</text></g><g class="node text indent" transform="translate(-371.875,160)" style="opacity: 1; font-size: 11px; font-weight: bold;"><circle r="10" style="stroke-width: 1.5px; fill: rgb(255, 204, 0); stroke: orange;"/><text text-anchor="middle" dy="-15">#text</text></g><g class="node text indent" transform="translate(0,80)" style="opacity: 1; font-size: 11px; font-weight: bold;"><circle r="10" style="stroke-width: 1.5px; fill: rgb(255, 204, 0); stroke: orange;"/><text text-anchor="middle" dy="-15">#text</text></g><g class="node element" transform="translate(521.875,80)" style="opacity: 1; font-size: 11px; font-weight: bold;"><circle r="10" style="stroke-width: 1.5px; fill: steelblue; stroke: rgb(53, 94, 149);"/><text text-anchor="middle" dy="-15">body</text></g><g class="node text indent" transform="translate(-171.875,160)" style="opacity: 1; font-size: 11px; font-weight: bold;"><circle r="10" style="stroke-width: 1.5px; fill: rgb(255, 204, 0); stroke: orange;"/><text text-anchor="middle" dy="-15">#text</text></g><g class="node element" transform="translate(-121.875,160)" style="opacity: 1; font-size: 11px; font-weight: bold;"><circle r="10" style="stroke-width: 1.5px; fill: steelblue; stroke: rgb(53, 94, 149);"/><text text-anchor="middle" dy="-15">nav#mainNav</text></g><g class="node text" transform="translate(-171.875,240)" style="opacity: 1; font-size: 11px; font-weight: bold;"><circle r="10" style="stroke-width: 1.5px; fill: rgb(80, 180, 86); stroke: rgb(13, 149, 44);"/><text text-anchor="middle" dy="-15">#text</text></g><g class="node element" transform="translate(1065.625,160)" style="opacity: 1; font-size: 11px; font-weight: bold;"><circle r="10" style="stroke-width: 1.5px; fill: steelblue; stroke: rgb(53, 94, 149);"/><text text-anchor="middle" dy="-15">section.clean-block.clean-info</text></g><g class="node text indent" transform="translate(-771.875,160)" style="opacity: 1; font-size: 11px; font-weight: bold;"><circle r="10" style="stroke-width: 1.5px; fill: rgb(255, 204, 0); stroke: orange;"/><text text-anchor="middle" dy="-15">#text</text></g><g class="node element" transform="translate(-721.875,160)" style="opacity: 1; font-size: 11px; font-weight: bold;"><circle r="10" style="stroke-width: 1.5px; fill: steelblue; stroke: rgb(53, 94, 149);"/><text text-anchor="middle" dy="-15">meta</text></g><g class="node text indent" transform="translate(-271.875,160)" style="opacity: 1; font-size: 11px; font-weight: bold;"><circle r="10" style="stroke-width: 1.5px; fill: rgb(255, 204, 0); stroke: orange;"/><text text-anchor="middle" dy="-15">#text</text></g><g class="node element" transform="translate(-121.875,240)" style="opacity: 1; font-size: 11px; font-weight: bold;"><circle r="10" style="stroke-width: 1.5px; fill: steelblue; stroke: rgb(53, 94, 149);"/><text text-anchor="middle" dy="-15">div.container</text></g><g class="node text indent" transform="translate(-346.875,320)" style="opacity: 1; font-size: 11px; font-weight: bold;"><circle r="10" style="stroke-width: 1.5px; fill: rgb(255, 204, 0); stroke: orange;"/><text text-anchor="middle" dy="-15">#text</text></g><g class="node element" transform="translate(-296.875,320)" style="opacity: 1; font-size: 11px; font-weight: bold;"><circle r="10" style="stroke-width: 1.5px; fill: steelblue; stroke: rgb(53, 94, 149);"/><text text-anchor="middle" dy="-15">a.navbar-brand</text></g><g class="node text" transform="translate(-296.875,400)" style="opacity: 1; font-size: 11px; font-weight: bold;"><circle r="10" style="stroke-width: 1.5px; fill: rgb(80, 180, 86); stroke: rgb(13, 149, 44);"/><text text-anchor="middle" dy="-15">#text</text></g><g class="node element" transform="translate(-146.875,320)" style="opacity: 1; font-size: 11px; font-weight: bold;"><circle r="10" style="stroke-width: 1.5px; fill: steelblue; stroke: rgb(53, 94, 149);"/><text text-anchor="middle" dy="-15">button.navbar-toggler.navbar-toggler-right</text></g><g class="node text indent" transform="translate(-196.875,400)" style="opacity: 1; font-size: 11px; font-weight: bold;"><circle r="10" style="stroke-width: 1.5px; fill: rgb(255, 204, 0); stroke: orange;"/><text text-anchor="middle" dy="-15">#text</text></g><g class="node element" transform="translate(-146.875,400)" style="opacity: 1; font-size: 11px; font-weight: bold;"><circle r="10" style="stroke-width: 1.5px; fill: steelblue; stroke: rgb(53, 94, 149);"/><text text-anchor="middle" dy="-15">i.fa.fa-bars</text></g><g class="node text indent" transform="translate(-96.875,400)" style="opacity: 1; font-size: 11px; font-weight: bold;"><circle r="10" style="stroke-width: 1.5px; fill: rgb(255, 204, 0); stroke: orange;"/><text text-anchor="middle" dy="-15">#text</text></g><g class="node text indent" transform="translate(-46.875,320)" style="opacity: 1; font-size: 11px; font-weight: bold;"><circle r="10" style="stroke-width: 1.5px; fill: rgb(255, 204, 0); stroke: orange;"/><text text-anchor="middle" dy="-15">#text</text></g><g class="node element" transform="translate(53.125,320)" style="opacity: 1; font-size: 11px; font-weight: bold;"><circle r="10" style="stroke-width: 1.5px; fill: steelblue; stroke: rgb(53, 94, 149);"/><text text-anchor="middle" dy="-15">div#navbarResponsive</text></g><g class="node text indent" transform="translate(3.125,400)" style="opacity: 1; font-size: 11px; font-weight: bold;"><circle r="10" style="stroke-width: 1.5px; fill: rgb(255, 204, 0); stroke: orange;"/><text text-anchor="middle" dy="-15">#text</text></g><g class="node element" transform="translate(53.125,400)" style="opacity: 1; font-size: 11px; font-weight: bold;"><circle r="10" style="stroke-width: 1.5px; fill: steelblue; stroke: rgb(53, 94, 149);"/><text text-anchor="middle" dy="-15">ul.navbar-nav.ms-auto.text-uppercase</text></g><g class="node text indent" transform="translate(-446.875,480)" style="opacity: 1; font-size: 11px; font-weight: bold;"><circle r="10" style="stroke-width: 1.5px; fill: rgb(255, 204, 0); stroke: orange;"/><text text-anchor="middle" dy="-15">#text</text></g><g class="node element" transform="translate(-346.875,480)" style="opacity: 1; font-size: 11px; font-weight: bold;"><circle r="10" style="stroke-width: 1.5px; fill: steelblue; stroke: rgb(53, 94, 149);"/><text text-anchor="middle" dy="-15">li.nav-item</text></g><g class="node text indent" transform="translate(-396.875,560)" style="opacity: 1; font-size: 11px; font-weight: bold;"><circle r="10" style="stroke-width: 1.5px; fill: rgb(255, 204, 0); stroke: orange;"/><text text-anchor="middle" dy="-15">#text</text></g><g class="node element" transform="translate(-346.875,560)" style="opacity: 1; font-size: 11px; font-weight: bold;"><circle r="10" style="stroke-width: 1.5px; fill: steelblue; stroke: rgb(53, 94, 149);"/><text text-anchor="middle" dy="-15">a.nav-link</text></g><g class="node text" transform="translate(-346.875,640)" style="opacity: 1; font-size: 11px; font-weight: bold;"><circle r="10" style="stroke-width: 1.5px; fill: rgb(80, 180, 86); stroke: rgb(13, 149, 44);"/><text text-anchor="middle" dy="-15">#text</text></g><g class="node text indent" transform="translate(-296.875,560)" style="opacity: 1; font-size: 11px; font-weight: bold;"><circle r="10" style="stroke-width: 1.5px; fill: rgb(255, 204, 0); stroke: orange;"/><text text-anchor="middle" dy="-15">#text</text></g><g class="node text indent" transform="translate(-246.875,480)" style="opacity: 1; font-size: 11px; font-weight: bold;"><circle r="10" style="stroke-width: 1.5px; fill: rgb(255, 204, 0); stroke: orange;"/><text text-anchor="middle" dy="-15">#text</text></g><g class="node element" transform="translate(-146.875,480)" style="opacity: 1; font-size: 11px; font-weight: bold;"><circle r="10" style="stroke-width: 1.5px; fill: steelblue; stroke: rgb(53, 94, 149);"/><text text-anchor="middle" dy="-15">li.nav-item</text></g><g class="node text indent" transform="translate(-196.875,560)" style="opacity: 1; font-size: 11px; font-weight: bold;"><circle r="10" style="stroke-width: 1.5px; fill: rgb(255, 204, 0); stroke: orange;"/><text text-anchor="middle" dy="-15">#text</text></g><g class="node element" transform="translate(-146.875,560)" style="opacity: 1; font-size: 11px; font-weight: bold;"><circle r="10" style="stroke-width: 1.5px; fill: steelblue; stroke: rgb(53, 94, 149);"/><text text-anchor="middle" dy="-15">a.nav-link</text></g><g class="node text" transform="translate(-146.875,640)" style="opacity: 1; font-size: 11px; font-weight: bold;"><circle r="10" style="stroke-width: 1.5px; fill: rgb(80, 180, 86); stroke: rgb(13, 149, 44);"/><text text-anchor="middle" dy="-15">#text</text></g><g class="node text indent" transform="translate(-96.875,560)" style="opacity: 1; font-size: 11px; font-weight: bold;"><circle r="10" style="stroke-width: 1.5px; fill: rgb(255, 204, 0); stroke: orange;"/><text text-anchor="middle" dy="-15">#text</text></g><g class="node text indent" transform="translate(-46.875,480)" style="opacity: 1; font-size: 11px; font-weight: bold;"><circle r="10" style="stroke-width: 1.5px; fill: rgb(255, 204, 0); stroke: orange;"/><text text-anchor="middle" dy="-15">#text</text></g><g class="node element" transform="translate(53.125,480)" style="opacity: 1; font-size: 11px; font-weight: bold;"><circle r="10" style="stroke-width: 1.5px; fill: steelblue; stroke: rgb(53, 94, 149);"/><text text-anchor="middle" dy="-15">li.nav-item</text></g><g class="node text indent" transform="translate(3.125,560)" style="opacity: 1; font-size: 11px; font-weight: bold;"><circle r="10" style="stroke-width: 1.5px; fill: rgb(255, 204, 0); stroke: orange;"/><text text-anchor="middle" dy="-15">#text</text></g><g class="node element" transform="translate(53.125,560)" style="opacity: 1; font-size: 11px; font-weight: bold;"><circle r="10" style="stroke-width: 1.5px; fill: steelblue; stroke: rgb(53, 94, 149);"/><text text-anchor="middle" dy="-15">a.nav-link</text></g><g class="node text" transform="translate(53.125,640)" style="opacity: 1; font-size: 11px; font-weight: bold;"><circle r="10" style="stroke-width: 1.5px; fill: rgb(80, 180, 86); stroke: rgb(13, 149, 44);"/><text text-anchor="middle" dy="-15">#text</text></g><g class="node text indent" transform="translate(103.125,560)" style="opacity: 1; font-size: 11px; font-weight: bold;"><circle r="10" style="stroke-width: 1.5px; fill: rgb(255, 204, 0); stroke: orange;"/><text text-anchor="middle" dy="-15">#text</text></g><g class="node text indent" transform="translate(153.125,480)" style="opacity: 1; font-size: 11px; font-weight: bold;"><circle r="10" style="stroke-width: 1.5px; fill: rgb(255, 204, 0); stroke: orange;"/><text text-anchor="middle" dy="-15">#text</text></g><g class="node element" transform="translate(253.125,480)" style="opacity: 1; font-size: 11px; font-weight: bold;"><circle r="10" style="stroke-width: 1.5px; fill: steelblue; stroke: rgb(53, 94, 149);"/><text text-anchor="middle" dy="-15">li.nav-item</text></g><g class="node text indent" transform="translate(203.125,560)" style="opacity: 1; font-size: 11px; font-weight: bold;"><circle r="10" style="stroke-width: 1.5px; fill: rgb(255, 204, 0); stroke: orange;"/><text text-anchor="middle" dy="-15">#text</text></g><g class="node element" transform="translate(253.125,560)" style="opacity: 1; font-size: 11px; font-weight: bold;"><circle r="10" style="stroke-width: 1.5px; fill: steelblue; stroke: rgb(53, 94, 149);"/><text text-anchor="middle" dy="-15">a.nav-link</text></g><g class="node text" transform="translate(253.125,640)" style="opacity: 1; font-size: 11px; font-weight: bold;"><circle r="10" style="stroke-width: 1.5px; fill: rgb(80, 180, 86); stroke: rgb(13, 149, 44);"/><text text-anchor="middle" dy="-15">#text</text></g><g class="node text indent" transform="translate(303.125,560)" style="opacity: 1; font-size: 11px; font-weight: bold;"><circle r="10" style="stroke-width: 1.5px; fill: rgb(255, 204, 0); stroke: orange;"/><text text-anchor="middle" dy="-15">#text</text></g><g class="node text indent" transform="translate(353.125,480)" style="opacity: 1; font-size: 11px; font-weight: bold;"><circle r="10" style="stroke-width: 1.5px; fill: rgb(255, 204, 0); stroke: orange;"/><text text-anchor="middle" dy="-15">#text</text></g><g class="node element" transform="translate(453.125,480)" style="opacity: 1; font-size: 11px; font-weight: bold;"><circle r="10" style="stroke-width: 1.5px; fill: steelblue; stroke: rgb(53, 94, 149);"/><text text-anchor="middle" dy="-15">li.nav-item</text></g><g class="node text indent" transform="translate(403.125,560)" style="opacity: 1; font-size: 11px; font-weight: bold;"><circle r="10" style="stroke-width: 1.5px; fill: rgb(255, 204, 0); stroke: orange;"/><text text-anchor="middle" dy="-15">#text</text></g><g class="node element" transform="translate(453.125,560)" style="opacity: 1; font-size: 11px; font-weight: bold;"><circle r="10" style="stroke-width: 1.5px; fill: steelblue; stroke: rgb(53, 94, 149);"/><text text-anchor="middle" dy="-15">a.nav-link</text></g><g class="node text" transform="translate(453.125,640)" style="opacity: 1; font-size: 11px; font-weight: bold;"><circle r="10" style="stroke-width: 1.5px; fill: rgb(80, 180, 86); stroke: rgb(13, 149, 44);"/><text text-anchor="middle" dy="-15">#text</text></g><g class="node text indent" transform="translate(503.125,560)" style="opacity: 1; font-size: 11px; font-weight: bold;"><circle r="10" style="stroke-width: 1.5px; fill: rgb(255, 204, 0); stroke: orange;"/><text text-anchor="middle" dy="-15">#text</text></g><g class="node text indent" transform="translate(553.125,480)" style="opacity: 1; font-size: 11px; font-weight: bold;"><circle r="10" style="stroke-width: 1.5px; fill: rgb(255, 204, 0); stroke: orange;"/><text text-anchor="middle" dy="-15">#text</text></g><g class="node element" transform="translate(653.125,480)" style="opacity: 1; font-size: 11px; font-weight: bold;"><circle r="10" style="stroke-width: 1.5px; fill: steelblue; stroke: rgb(53, 94, 149);"/><text text-anchor="middle" dy="-15">li.nav-item</text></g><g class="node text indent" transform="translate(603.125,560)" style="opacity: 1; font-size: 11px; font-weight: bold;"><circle r="10" style="stroke-width: 1.5px; fill: rgb(255, 204, 0); stroke: orange;"/><text text-anchor="middle" dy="-15">#text</text></g><g class="node element" transform="translate(653.125,560)" style="opacity: 1; font-size: 11px; font-weight: bold;"><circle r="10" style="stroke-width: 1.5px; fill: steelblue; stroke: rgb(53, 94, 149);"/><text text-anchor="middle" dy="-15">a.nav-link</text></g><g class="node text" transform="translate(653.125,640)" style="opacity: 1; font-size: 11px; font-weight: bold;"><circle r="10" style="stroke-width: 1.5px; fill: rgb(80, 180, 86); stroke: rgb(13, 149, 44);"/><text text-anchor="middle" dy="-15">#text</text></g><g class="node text indent" transform="translate(703.125,560)" style="opacity: 1; font-size: 11px; font-weight: bold;"><circle r="10" style="stroke-width: 1.5px; fill: rgb(255, 204, 0); stroke: orange;"/><text text-anchor="middle" dy="-15">#text</text></g><g class="node text indent" transform="translate(703.125,480)" style="opacity: 1; font-size: 11px; font-weight: bold;"><circle r="10" style="stroke-width: 1.5px; fill: rgb(255, 204, 0); stroke: orange;"/><text text-anchor="middle" dy="-15">#text</text></g><g class="node text indent" transform="translate(103.125,400)" style="opacity: 1; font-size: 11px; font-weight: bold;"><circle r="10" style="stroke-width: 1.5px; fill: rgb(255, 204, 0); stroke: orange;"/><text text-anchor="middle" dy="-15">#text</text></g><g class="node text indent" transform="translate(103.125,320)" style="opacity: 1; font-size: 11px; font-weight: bold;"><circle r="10" style="stroke-width: 1.5px; fill: rgb(255, 204, 0); stroke: orange;"/><text text-anchor="middle" dy="-15">#text</text></g><g class="node text indent" transform="translate(-71.875,240)" style="opacity: 1; font-size: 11px; font-weight: bold;"><circle r="10" style="stroke-width: 1.5px; fill: rgb(255, 204, 0); stroke: orange;"/><text text-anchor="middle" dy="-15">#text</text></g><g class="node element" transform="translate(1065.625,240)" style="opacity: 1; font-size: 11px; font-weight: bold;"><circle r="10" style="stroke-width: 1.5px; fill: steelblue; stroke: rgb(53, 94, 149);"/><text text-anchor="middle" dy="-15">div.container</text></g><g class="node text indent" transform="translate(1015.625,320)" style="opacity: 1; font-size: 11px; font-weight: bold;"><circle r="10" style="stroke-width: 1.5px; fill: rgb(255, 204, 0); stroke: orange;"/><text text-anchor="middle" dy="-15">#text</text></g><g class="node element" transform="translate(1065.625,320)" style="opacity: 1; font-size: 11px; font-weight: bold;"><circle r="10" style="stroke-width: 1.5px; fill: steelblue; stroke: rgb(53, 94, 149);"/><text text-anchor="middle" dy="-15">div.row.align-items-center</text></g><g class="node text indent" transform="translate(878.125,400)" style="opacity: 1; font-size: 11px; font-weight: bold;"><circle r="10" style="stroke-width: 1.5px; fill: rgb(255, 204, 0); stroke: orange;"/><text text-anchor="middle" dy="-15">#text</text></g><g class="node element" transform="translate(928.125,400)" style="opacity: 1; font-size: 11px; font-weight: bold;"><circle r="10" style="stroke-width: 1.5px; fill: steelblue; stroke: rgb(53, 94, 149);"/><text text-anchor="middle" dy="-15">div.col-md-8</text></g><g class="node text indent" transform="translate(803.125,480)" style="opacity: 1; font-size: 11px; font-weight: bold;"><circle r="10" style="stroke-width: 1.5px; fill: rgb(255, 204, 0); stroke: orange;"/><text text-anchor="middle" dy="-15">#text</text></g><g class="node element" transform="translate(1003.125,480)" style="opacity: 1; font-size: 11px; font-weight: bold;"><circle r="10" style="stroke-width: 1.5px; fill: steelblue; stroke: rgb(53, 94, 149);"/><text text-anchor="middle" dy="-15">div.getting-started-info</text></g><g class="node text indent" transform="translate(1253.125,400)" style="opacity: 1; font-size: 11px; font-weight: bold;"><circle r="10" style="stroke-width: 1.5px; fill: rgb(255, 204, 0); stroke: orange;"/><text text-anchor="middle" dy="-15">#text</text></g><g class="node text indent" transform="translate(1115.625,320)" style="opacity: 1; font-size: 11px; font-weight: bold;"><circle r="10" style="stroke-width: 1.5px; fill: rgb(255, 204, 0); stroke: orange;"/><text text-anchor="middle" dy="-15">#text</text></g><g class="node text indent" transform="translate(1115.625,160)" style="opacity: 1; font-size: 11px; font-weight: bold;"><circle r="10" style="stroke-width: 1.5px; fill: rgb(255, 204, 0); stroke: orange;"/><text text-anchor="middle" dy="-15">#text</text></g><g class="node element" transform="translate(1165.625,160)" style="opacity: 1; font-size: 11px; font-weight: bold;"><circle r="10" style="stroke-width: 1.5px; fill: steelblue; stroke: rgb(53, 94, 149);"/><text text-anchor="middle" dy="-15">script</text></g><g class="node text indent" transform="translate(1215.625,160)" style="opacity: 1; font-size: 11px; font-weight: bold;"><circle r="10" style="stroke-width: 1.5px; fill: rgb(255, 204, 0); stroke: orange;"/><text text-anchor="middle" dy="-15">#text</text></g><g class="node text indent" transform="translate(471.875,160)" style="opacity: 1; font-size: 11px; font-weight: bold;"><circle r="10" style="stroke-width: 1.5px; fill: rgb(255, 204, 0); stroke: orange;"/><text text-anchor="middle" dy="-15">#text</text></g><g class="node element" transform="translate(1003.125,560)" style="opacity: 1; font-size: 11px; font-weight: bold;"><circle r="10" style="stroke-width: 1.5px; fill: steelblue; stroke: rgb(53, 94, 149);"/><text text-anchor="middle" dy="-15">p</text></g><g class="node text indent" transform="translate(1053.125,480)" style="opacity: 1; font-size: 11px; font-weight: bold;"><circle r="10" style="stroke-width: 1.5px; fill: rgb(255, 204, 0); stroke: orange;"/><text text-anchor="middle" dy="-15">#text</text></g><g class="node text indent" transform="translate(-471.875,160)" style="opacity: 1; font-size: 11px; font-weight: bold;"><circle r="10" style="stroke-width: 1.5px; fill: rgb(255, 204, 0); stroke: orange;"/><text text-anchor="middle" dy="-15">#text</text></g><g class="node element" transform="translate(-421.875,160)" style="opacity: 1; font-size: 11px; font-weight: bold;"><circle r="10" style="stroke-width: 1.5px; fill: steelblue; stroke: rgb(53, 94, 149);"/><text text-anchor="middle" dy="-15">link</text></g><g class="node text indent" transform="translate(-596.875,480)" style="opacity: 1; font-size: 11px; font-weight: bold;"><circle r="10" style="stroke-width: 1.5px; fill: rgb(255, 204, 0); stroke: orange;"/><text text-anchor="middle" dy="-15">#text</text></g><g class="node element" transform="translate(-546.875,480)" style="opacity: 1; font-size: 11px; font-weight: bold;"><circle r="10" style="stroke-width: 1.5px; fill: steelblue; stroke: rgb(53, 94, 149);"/><text text-anchor="middle" dy="-15">li.nav-item</text></g><g class="node text indent" transform="translate(-596.875,560)" style="opacity: 1; font-size: 11px; font-weight: bold;"><circle r="10" style="stroke-width: 1.5px; fill: rgb(255, 204, 0); stroke: orange;"/><text text-anchor="middle" dy="-15">#text</text></g><g class="node element" transform="translate(-546.875,560)" style="opacity: 1; font-size: 11px; font-weight: bold;"><circle r="10" style="stroke-width: 1.5px; fill: steelblue; stroke: rgb(53, 94, 149);"/><text text-anchor="middle" dy="-15">a.nav-link</text></g><g class="node text" transform="translate(-546.875,640)" style="opacity: 1; font-size: 11px; font-weight: bold;"><circle r="10" style="stroke-width: 1.5px; fill: rgb(80, 180, 86); stroke: rgb(13, 149, 44);"/><text text-anchor="middle" dy="-15">#text</text></g><g class="node text indent" transform="translate(-496.875,560)" style="opacity: 1; font-size: 11px; font-weight: bold;"><circle r="10" style="stroke-width: 1.5px; fill: rgb(255, 204, 0); stroke: orange;"/><text text-anchor="middle" dy="-15">#text</text></g><g class="node text indent" transform="translate(1015.625,240)" style="opacity: 1; font-size: 11px; font-weight: bold;"><circle r="10" style="stroke-width: 1.5px; fill: rgb(255, 204, 0); stroke: orange;"/><text text-anchor="middle" dy="-15">#text</text></g><g class="node text indent" transform="translate(953.125,640)" style="opacity: 1; font-size: 11px; font-weight: bold;"><circle r="10" style="stroke-width: 1.5px; fill: rgb(255, 204, 0); stroke: orange;"/><text text-anchor="middle" dy="-15">#text</text></g><g class="node text indent" transform="translate(1053.125,640)" style="opacity: 1; font-size: 11px; font-weight: bold;"><circle r="10" style="stroke-width: 1.5px; fill: rgb(255, 204, 0); stroke: orange;"/><text text-anchor="middle" dy="-15">#text</text></g><g class="node text indent" transform="translate(1065.625,400)" style="opacity: 1; font-size: 11px; font-weight: bold;"><circle r="10" style="stroke-width: 1.5px; fill: rgb(255, 204, 0); stroke: orange;"/><text text-anchor="middle" dy="-15">#text</text></g><g class="node element" transform="translate(1203.125,400)" style="opacity: 1; font-size: 11px; font-weight: bold;"><circle r="10" style="stroke-width: 1.5px; fill: steelblue; stroke: rgb(53, 94, 149);"/><text text-anchor="middle" dy="-15">div.col-md-4</text></g><g class="node text" transform="translate(1153.125,480)" style="opacity: 1; font-size: 11px; font-weight: bold;"><circle r="10" style="stroke-width: 1.5px; fill: rgb(80, 180, 86); stroke: rgb(13, 149, 44);"/><text text-anchor="middle" dy="-15">#text</text></g><g class="node text indent" transform="translate(1115.625,240)" style="opacity: 1; font-size: 11px; font-weight: bold;"><circle r="10" style="stroke-width: 1.5px; fill: rgb(255, 204, 0); stroke: orange;"/><text text-anchor="middle" dy="-15">#text</text></g><g class="node element" transform="translate(853.125,480)" style="opacity: 1; font-size: 11px; font-weight: bold;"><circle r="10" style="stroke-width: 1.5px; fill: steelblue; stroke: rgb(53, 94, 149);"/><text text-anchor="middle" dy="-15">h1</text></g><g class="node text" transform="translate(853.125,560)" style="opacity: 1; font-size: 11px; font-weight: bold;"><circle r="10" style="stroke-width: 1.5px; fill: rgb(80, 180, 86); stroke: rgb(13, 149, 44);"/><text text-anchor="middle" dy="-15">#text</text></g><g class="node text indent" transform="translate(928.125,480)" style="opacity: 1; font-size: 11px; font-weight: bold;"><circle r="10" style="stroke-width: 1.5px; fill: rgb(255, 204, 0); stroke: orange;"/><text text-anchor="middle" dy="-15">#text</text></g><g class="node text indent" transform="translate(953.125,560)" style="opacity: 1; font-size: 11px; font-weight: bold;"><circle r="10" style="stroke-width: 1.5px; fill: rgb(255, 204, 0); stroke: orange;"/><text text-anchor="middle" dy="-15">#text</text></g><g class="node element" transform="translate(1003.125,640)" style="opacity: 1; font-size: 11px; font-weight: bold;"><circle r="10" style="stroke-width: 1.5px; fill: steelblue; stroke: rgb(53, 94, 149);"/><text text-anchor="middle" dy="-15">br</text></g><g class="node text indent" transform="translate(1053.125,560)" style="opacity: 1; font-size: 11px; font-weight: bold;"><circle r="10" style="stroke-width: 1.5px; fill: rgb(255, 204, 0); stroke: orange;"/><text text-anchor="middle" dy="-15">#text</text></g><g class="node element" transform="translate(1203.125,480)" style="opacity: 1; font-size: 11px; font-weight: bold;"><circle r="10" style="stroke-width: 1.5px; fill: steelblue; stroke: rgb(53, 94, 149);"/><text text-anchor="middle" dy="-15">img</text></g><g class="node text indent" transform="translate(1253.125,480)" style="opacity: 1; font-size: 11px; font-weight: bold;"><circle r="10" style="stroke-width: 1.5px; fill: rgb(255, 204, 0); stroke: orange;"/><text text-anchor="middle" dy="-15">#text</text></g><g class="node element" transform="translate(-321.875,160)" style="opacity: 1; font-size: 11px; font-weight: bold;"><circle r="10" style="stroke-width: 1.5px; fill: steelblue; stroke: rgb(53, 94, 149);"/><text text-anchor="middle" dy="-15">link</text></g></g></svg>